<?xml version="1.0" encoding="iso-8859-1"?>
<!-- Generator: Adobe Illustrator 19.0.0, SVG Export Plug-In . SVG Version: 6.00 Build 0)  -->
<svg version="1.1" id="Capa_1" xmlns="http://www.w3.org/2000/svg" xmlns:xlink="http://www.w3.org/1999/xlink" x="0px" y="0px"
	 viewBox="0 0 512.002 512.002" style="enable-background:new 0 0 512.002 512.002;" xml:space="preserve">
<g>
	<g>
		<path d="M296.002,396.002c-5.523,0-10,4.477-10,10v0.324c0,5.523,4.477,10,10,10c5.522,0,10-4.477,10-10v-0.324
			C306.002,400.479,301.525,396.002,296.002,396.002z"/>
	</g>
</g>
<g>
	<g>
		<path d="M216.002,80c-5.523,0-10,4.477-10,10v65.952c0,5.523,4.477,10,10,10c5.522,0,10-4.477,10-10V90
			C226.002,84.477,221.525,80,216.002,80z"/>
	</g>
</g>
<g>
	<g>
		<path d="M216.002,175.675c-5.523,0-10,4.477-10,10V186c0,5.523,4.477,10,10,10c5.522,0,10-4.477,10-10v-0.325
			C226.002,180.152,221.525,175.675,216.002,175.675z"/>
	</g>
</g>
<g>
	<g>
		<path d="M489.185,207.93L489.185,207.93c5.522-0.001,10-4.478,10-10.001c0-5.523-4.478-10-10-10h-7.039v-20h7.039
			c5.522,0,10-4.477,10-10c0-5.523-4.478-10-10-10h-8.045c-3.987-19.563-19.432-35.007-38.994-38.994v-8.044c0-5.523-4.478-10-10-10
			c-5.522,0-10,4.477-10,10v8.044c-22.795,4.646-40,24.848-40,48.994v49.999h-36.144v-41.879h7.038c5.522,0,10-4.477,10-10
			s-4.478-10-10-10h-7.038v-20h7.038c5.522,0,10-4.477,10-10s-4.478-10-10-10h-7.038V90c0-49.626-40.374-90-90-90
			c-46.246,0-84.451,35.063-89.441,80h-7.598c-5.522,0-10,4.477-10,10s4.478,10,10,10h7.039v20h-7.039c-5.522,0-10,4.477-10,10
			s4.478,10,10,10h7.039v20h-7.039c-5.522,0-10,4.477-10,10s4.478,10,10,10h7.039v20h-7.039c-5.522,0-10,4.477-10,10s4.478,10,10,10
			h7.039v67.929h-36.145V237.93c0-24.146-17.205-44.349-40-48.994v-8.044c0-5.523-4.478-10-10-10c-5.522,0-10,4.477-10,10v8.044
			c-6.374,1.299-12.307,3.82-17.553,7.299l-5.708-5.708c-3.905-3.904-10.236-3.905-14.142-0.001
			c-3.905,3.905-3.906,10.237-0.001,14.142l5.708,5.709c-5.242,7.906-8.305,17.377-8.305,27.553v30h-7.039c-5.522,0-10,4.477-10,10
			s4.478,10,10,10h7.039v20h-7.039c-5.522,0-10,4.477-10,10s4.478,10,10,10h7.039v9.999c0,27.57,22.43,50.001,50,50.001
			c0.003,0,0.006-0.001,0.01-0.001h86.135v31.297h-7.039c-5.522,0-10,4.477-10,10s4.478,10,10,10h7.039v20h-7.039
			c-5.522,0-10,4.477-10,10s4.478,10,10,10h7.039v22.776c0,5.523,4.477,10,10,10h160c5.522,0,10-4.477,10-10v-65.953h7.038
			c5.522,0,10-4.477,10-10s-4.478-10-10-10h-7.038v-20h7.038c5.522,0,10-4.477,10-10s-4.478-10-10-10h-7.038v-20h7.038
			c5.522,0,10-4.477,10-10s-4.478-10-10-10h-7.038v-28.12h86.134c0.003,0,0.007,0.001,0.01,0.001c27.57,0,50-22.43,50-50.001v-9.999
			h7.039c5.522,0,10-4.477,10-10c0-5.523-4.478-10-10-10h-7.039v-20H489.185z M326.003,492.002L326.003,492.002h-20.001v-55.953
			c0-5.523-4.478-10-10-10c-5.523,0-10,4.477-10,10v55.953h-20V217.929c0-5.523-4.478-10-10-10c-5.523,0-10,4.477-10,10v274.073h-60
			V377.929c0-5.523-4.478-10-10-10H79.858c-0.002,0-0.004,0.001-0.006,0.001c-16.54-0.004-29.994-13.46-29.994-30.001V237.93
			c0-16.541,13.454-29.997,29.994-30.001c0.002,0,0.004,0.001,0.006,0.001s0.004-0.001,0.006-0.001
			c16.54,0.004,29.994,13.46,29.994,30.001v59.999c0,5.523,4.478,10,10,10h56.145c5.522,0,10-4.477,10-10V90
			c0-38.598,31.401-70,70-70s70,31.402,70,70V492.002z M462.146,257.929c0,16.541-13.454,29.997-29.993,30.001
			c-0.003,0-0.005-0.001-0.007-0.001h-86.144v-60h46.144c5.522,0,10-4.477,10-10V157.93c0-16.542,13.458-30.001,30-30.001
			s30,13.458,30,30.001V257.929z"/>
	</g>
</g>
<g>
</g>
<g>
</g>
<g>
</g>
<g>
</g>
<g>
</g>
<g>
</g>
<g>
</g>
<g>
</g>
<g>
</g>
<g>
</g>
<g>
</g>
<g>
</g>
<g>
</g>
<g>
</g>
<g>
</g>
</svg>
